<?xml version="1.0" encoding="UTF-8"?>
<svg id="Layer_2" data-name="Layer 2" xmlns="http://www.w3.org/2000/svg" viewBox="0 0 57.96 12.93">
  <defs>
    <style>
      .cls-1 {
        fill: #191919;
      }
    </style>
  </defs>
  <g id="Layer_1-2" data-name="Layer 1">
    <path class="cls-1" d="m2.54,9.15c-.15-.27-.26-.56-.32-.87v-.02s-.01-.05-.01-.05v-.02s0-.02,0-.02h0s0-.02,0-.02v-.02s0-.02,0-.02h0s0-.02,0-.02v-.02s0-.02,0-.02v-.02s0,0,0,0v-.02s0-.02,0-.02v-.02s0,0,0,0v-.02s0-.04,0-.04h0s0-.03,0-.03v-.02s0-.02,0-.02h0s0-.03,0-.03v-.05h0v-.07s0-.01,0-.01h0v-.04s0-.02,0-.02v-.02s0,0,0,0h0s0-.03,0-.03v-.02s0-.02,0-.02v-.02s0,0,0,0v-.02s0-.02,0-.02v-.02s0-.02,0-.02h0s0-.02,0-.02v-.02s0-.02,0-.02v-.02s0-.02,0-.02h0s0-.02,0-.02v-.02s0-.02,0-.02v-.02s0-.02,0-.02h0s0-.02,0-.02v-.02s0-.02,0-.02v-.03s0-.02,0-.02v-.02s0-.02,0-.02v-.02s.01-.05.01-.05v-.02s0-.02,0-.02c.03-.11.06-.22.1-.33h0c.41-1.14,1.49-1.95,2.78-1.95,1.63,0,2.95,1.32,2.95,2.94s-1.32,2.94-2.95,2.94h0c-1.1,0-2.06-.6-2.56-1.49h0ZM2.45,0h0s0,0,0,0h0s0,0,0,0h0s0,0,0,0h0s0,0,0,0h0s0,0,0,0H.29C.13,0,0,.13,0,.29v7.41c.01,2.89,2.36,5.24,5.25,5.24h.06s.02,0,.02,0h.02s.02,0,.02,0h.02s.02,0,.02,0h.02s.02,0,.02,0h.02s.02,0,.02,0h.02s.02,0,.02,0h.02s.02,0,.02,0h.02s.02,0,.02,0h.02s.02,0,.02,0h.02s.02,0,.02,0h.02s.06,0,.06,0h.02s.02,0,.02,0h.06s.02,0,.02,0h.02c2.16-.25,3.91-1.8,4.46-3.85h0s0,0,0,0c.01-.03.03-.05.04-.05h0s0,0,0,0h0s0,0,0,0h0s0,.01,0,.01h0s0,.02,0,.02v3.51h0s0,.01,0,.01h0s0,0,0,0h0s0,0,0,0h0s0,0,0,0h0s0,0,0,0h0s0,0,0,0h0s0,0,0,0h0s0,0,0,0h0s0,0,0,0h0s0,0,0,0h0s0,0,0,0h0s0,0,0,0h0s0,0,0,0h0s0,0,0,0h0s0,0,0,0h0s0,0,0,0h0s0,0,0,0h2.33c.05,0,.09-.04.09-.09v-4.84h0c0-2.47,1.44-2.86,2.53-2.92.02,0,.04,0,.05,0h0s.02.02.01.04h0s0,0,0,0h0s0,0,0,0h0s0,0,0,0h0s-.02.04-.02.04h0s-.03.04-.03.04h0s-.02.04-.02.04h0s-.02.04-.02.04h0s-.02.04-.02.04h0s-.02.04-.02.04l-.02.04-.02.04h0s-.02.04-.02.04h0s-.02.04-.02.04h0s-.02.04-.02.04h0s-.02.04-.02.04l-.02.04h0s-.02.04-.02.04h0s-.02.04-.02.04h0s-.02.04-.02.04l-.02.04-.02.04-.02.04-.02.04-.02.04-.02.04h0s-.02.04-.02.04l-.02.04-.02.04-.02.04h0s-.02.04-.02.04l-.02.04-.02.04v.04s-.03.04-.03.04v.04s-.03.04-.03.04v.04s-.03.04-.03.04h0s-.01.05-.01.05v.05s-.02.05-.02.05v.05s-.01,0-.01,0v.05s-.02.05-.02.05v.05s-.02.05-.02.05v.05s0,0,0,0v.05s-.02.05-.02.05v.05s0,0,0,0v.05s-.01.05-.01.05v.05s-.01.05-.01.05v.05s0,0,0,0v.05s-.01.05-.01.05v.05s0,0,0,0v.05s0,0,0,0v.05s0,0,0,0v.05s0,.05,0,.05h0s0,.05,0,.05v.05s0,.05,0,.05h0v.05h0s0,.05,0,.05h0s0,.14,0,.14h0s0,.13,0,.13h0s0,.09,0,.13h0s.01.13.01.13h0s.02.13.02.13h0s.02.13.02.13h0s.02.13.02.13h0s.03.13.03.13h0s.03.13.03.13h0s.03.13.03.13h0s.03.13.03.13h0s.04.12.04.12l.04.12h0s.04.12.04.12h0s.05.12.05.12l.05.12.05.12.06.12h0s.06.11.06.11l.06.11h0s.06.11.06.11h0s.07.11.07.11h0s.07.11.07.11h0s.07.11.07.11l.07.1.08.1.08.1.08.1.08.1.09.09.09.09.09.09h0s.09.09.09.09l.09.09.1.08.1.08.1.08.1.08.1.07.11.07.11.07.11.07.11.06.11.06.11.06.12.06.12.05.12.05.12.05.12.05.12.04.13.04.13.04.13.03.13.03.13.03.13.02.13.02.13.02.13.02h.14s.14.02.14.02h.14s.14,0,.14,0h.05s.02,0,.02,0h.02s.02,0,.02,0h.02s.02,0,.02,0h.02s.02,0,.02,0h.02s0,0,0,0h.02s.02,0,.02,0h.05s.02,0,.02,0h0s.02,0,.02,0h.05s.02,0,.02,0h.02s0,0,0,0h.02s.02,0,.02,0h.02s.02,0,.02,0h.02s0,0,0,0h.02s.02,0,.02,0h.02s.05,0,.05,0h.02s.02,0,.02,0h.02c2.1-.29,3.82-1.76,4.41-3.71.02-.1.06-.15.1-.14h0s.03.01.04.03h0s0,.01,0,.01h0s0,0,0,0h0s0,0,0,0h0s0,0,0,0h0s0,0,0,0h0s0,0,0,0h0s0,0,0,0h0s0,0,0,0h0s0,0,0,0h0s0,0,0,0h0s0,0,0,0v.03s0,0,0,0h0s0,.09,0,.09h0v.08s.02.08.02.08h0v.08h.01v.08h.01l.02.08h0l.02.08.02.08h0l.02.08h0s.02.08.02.08h0l.02.08h0l.03.08h0l.03.08h0s.03.08.03.08l.03.08h0s.03.08.03.08l.04.08h0s.04.08.04.08l.04.08h0s.04.08.04.08h0l.04.08.05.08.05.08.05.08h0s.05.08.05.08h0s.05.07.05.07h0s.06.07.06.07l.06.07.06.07h0s.06.07.06.07h0s.06.07.06.07l.07.07h0s.07.07.07.07h0s.07.07.07.07l.07.06h0s.08.06.08.06l.08.06.08.06.08.06.09.06.09.06.09.05.09.05.1.05h0s.1.05.1.05l.1.05.1.04.1.04.11.04.11.04.11.04.11.03.12.03h0s.12.03.12.03l.12.03.13.02.13.02.13.02.13.02h.14s.14.02.14.02h.14s.14.01.14.01h.15s0,0,0,0h.03s0,0,0,0h0s0,0,0,0h.02s0,0,0,0h0s0,0,0,0h0s0,0,0,0h0s0,0,0,0h0s.03,0,.03,0h0s0,0,0,0h0s0,0,0,0h0s.02,0,.02,0h0s.04,0,.04,0h0s0,0,0,0c.95-.09,1.8-.61,2.14-1.01.08-.08.16-.09.19.01h0s0,.03,0,.04h0s0,.01,0,.01h0s0,0,0,0h0v.63h0s0,.01,0,.01h0s0,0,0,0h0s0,0,0,0h0s0,0,0,0h0s0,0,0,0h0s0,0,0,0h0s0,0,0,0h0s0,0,0,0h0s0,0,0,0h0s0,0,0,0h0s0,0,0,0h0s0,0,0,0h0s0,0,0,0h0s0,0,0,0h0s0,0,0,0h0s0,0,0,0h0s0,0,0,0h0s0,0,0,0h0s0,0,0,0h0s0,0,0,0h0s0,0,0,0h0s0,0,0,0h0s0,0,0,0h0s0,0,0,0h0s0,0,0,0h0s0,0,0,0h0s0,0,0,0h0s0,0,0,0h0s0,0,0,0h0s2.08,0,2.08,0h0s.24,0,.24,0c.05,0,.09-.04.09-.09v-5.5h0c.06-1.05.6-2.39,2.07-2.39,1.84,0,2.16,1.21,2.16,1.67h0v6.23c0,.05.04.09.09.09h2.33c.05,0,.09-.04.09-.09v-3.37h0c0-.07.05-.08.09-.07h0s.03.02.03.04l.03.1.03.1.04.1.04.1.04.1.04.1.04.1.05.09.05.09.05.09.05.09.05.09.06.09.06.09.06.09h0s.06.09.06.09l.06.08h0s.06.08.06.08l.07.08.07.08h0s.07.08.07.08h0s.07.08.07.08h0s.07.08.07.08l.07.08.07.07.08.07.08.07h0s.08.07.08.07l.08.07h0s.08.07.08.07l.08.06.08.06.09.06h0s.09.06.09.06l.09.06h0s.09.06.09.06l.09.05h0s.09.05.09.05h0s.09.05.09.05l.09.05h0s.1.05.1.05h0s.1.05.1.05h0s.1.04.1.04l.1.04.1.04h0s.1.04.1.04l.1.04.1.04h0s.1.03.1.03h0s.11.03.11.03h0s.11.03.11.03h0s.11.03.11.03l.11.02h0s.11.02.11.02h0s.11.02.11.02h0s.11.02.11.02h0s.11.02.11.02h0s.11.01.11.01h0s.11.01.11.01h0s.11.01.11.01h0s.11,0,.11,0h.11s.11,0,.11,0h0s.12,0,.12,0h0s.11,0,.11,0h0s0,0,0,0h.01c.06,0,.12,0,.18,0h.01s0,0,0,0h0s.01,0,.01,0h.01s.01,0,.01,0h.01s.01,0,.01,0h.01s.01,0,.01,0h.01s0,0,0,0h.01s.01,0,.01,0h.01s.01,0,.01,0h.01s.01,0,.01,0h.01s.01,0,.01,0h0s0,0,0,0h.01s.01,0,.01,0h.01s.01,0,.01,0h.01c2.1-.22,3.74-1.52,4.21-3.47.03-.11-.05-.21-.17-.21h-1.9c-.11,0-.21.06-.26.15-.5.96-1.44,1.61-2.5,1.61-1.34,0-2.46-1.02-2.8-2.41h7.94s0,0,0,0h0s0,0,0,0h0s0,0,0,0h0s0,0,0,0h0s0,0,0,0h0s0,0,0,0h0s0,0,0,0h0s0,0,0,0h0s0,0,0,0h0s0,0,0,0h0s0,0,0,0h0s0,0,0,0h0s0,0,0,0h0s0,0,0,0h0s0,0,0,0h0s0,0,0,0h0s0,0,0,0h0s0,0,0,0h0s0,0,0,0h0s0,0,0,0h0s0,0,0,0h0s0,0,0,0h0s0,0,0,0h0s0,0,0,0h0s0,0,0,0h0v3.92h0s0,.01,0,.01h0s0,0,0,0h0s0,0,0,0h0s0,0,0,0h0s0,0,0,0h0s0,0,0,0h0s0,0,0,0h0s0,0,0,0h0s0,0,0,0h0s0,0,0,0h0s0,0,0,0h0s0,0,0,0h0s0,0,0,0h0s0,0,0,0h0s0,0,0,0h0s0,0,0,0h0s0,0,0,0h0s0,0,0,0h0s0,0,0,0h0s0,0,0,0h0s0,0,0,0h0s0,0,0,0h0s0,0,0,0h0s0,0,0,0h0s0,0,0,0h0s2.32,0,2.32,0c.05,0,.09-.04.09-.09v-4.84h0c0-2.82,2.06-2.99,3.14-2.99v-2.01c0-.16.03-.32-.12-.32-3.35.04-4.66,1.59-5.18,2.96l-.02.06h0s-.02.08-.02.08h0s-.02.08-.02.08h0s-.02.08-.02.08h0s-.02.08-.02.08h0s-.02.08-.02.08h0s-.02.07-.02.07h0s-.02.07-.02.07h0s-.02.07-.02.07h0s-.02.07-.02.07h0s-.01.07-.01.07h0s-.01.07-.01.07h0s0,.01,0,.01h0s0,.01,0,.01h0s0,0,0,0h0s0,0,0,0h0s0,0,0,0h0s0,.01,0,.01h0s0,0,0,0h0s0,0,0,0h0s0,0,0,0h0s0,0,0,0h0s0,0,0,0h0s0,0,0,0h0s0,0,0,0h0s0,0,0,0h0s0,0,0,0h0s0,0,0,0h0s0,0,0,0h0s0,0,0,0h0s0,0,0,0h0s0,0,0,0h0s0,0,0,0h0s0,0,0,0h0s0,0,0,0h0s0,0,0,0h0s0,0,0,0h0s0,0,0,0h0s0,0,0,0h0s0,0,0,0h0s-.02-.05-.03-.08c-.61-2.01-2.45-3.52-4.69-3.73h-.02s-.02,0-.02,0h-.02s-.05,0-.05,0h-.02s-.02,0-.02,0h-.02s-.02,0-.02,0h-.02s0,0,0,0h-.01s-.02,0-.02,0h-.02s-.02,0-.02,0h-.02s-.02,0-.02,0h-.02s0,0,0,0h-.01s-.02,0-.02,0h-.02s-.02,0-.02,0h-.02s-.02,0-.02,0h-.02s0,0,0,0h-.01s-.02,0-.02,0h-.08s-.12,0-.12,0h-.11s-.11,0-.11,0h-.11s-.11.02-.11.02h-.11s-.11.03-.11.03l-.11.02-.11.02-.11.02-.11.02-.11.03-.11.03-.11.03-.1.03-.1.03-.1.03-.1.04-.1.04-.1.04-.1.04-.1.04-.1.05h0l-.1.05-.09.05-.09.05-.09.05-.09.05-.09.06h0l-.09.06-.09.06-.09.06h0l-.08.06-.08.06-.08.07-.08.07-.08.07-.08.07-.08.07h0l-.08.07-.07.08-.07.08-.07.08-.07.08-.07.08-.07.08-.06.08h0l-.06.08-.06.09h0l-.06.09-.06.09-.06.09-.05.09-.05.09-.05.09h0l-.05.09-.05.09h0l-.04.1-.04.1h0l-.04.1h0l-.04.1h0l-.04.1h0l-.03.1h0l-.03.1h0s0,.02,0,.02h0s0,0,0,0h0s0,0,0,0h0s0,0,0,0h0s0,0,0,0h0s-.01.02-.02.02h0s-.08,0-.08-.06c-.05-2.31-1.83-3.83-4.15-3.81-1.17,0-2.13.46-2.48.95-.03.04-.1.06-.1-.04h0V.09c0-.05-.04-.09-.09-.09h-2.33s0,0,0,0h0s0,0,0,0h0s0,0,0,0h0s0,0,0,0h0s0,0,0,0h0s0,0,0,0h0s0,0,0,0h0s0,0,0,0h0s0,0,0,0h0s0,0,0,0h0s0,0,0,0h0s0,0,0,0h0s0,0,0,0h0s0,0,0,0h0s0,0,0,0h0s0,0,0,0h0s0,0,0,0h0s0,0,0,0h0s0,0,0,0h0s0,0,0,0h0s0,0,0,0h0v7.69h0v.02h0s0,.01,0,.01h0v.02h0v.02h0v.02h0s0,0,0,0h0v.02h0s0,.03,0,.03h0s0,0,0,0h0s0,.01,0,.01h0s0,0,0,0h0s0,0,0,0h0s0,0,0,0h0s0,0,0,0h0s0,0,0,0h0s0,0,0,0h0c-.08,1.15-.8,2.6-2.39,2.6s-2.29-.88-2.29-2.62h0v-3.07c0-.05.04-.09.09-.09h3.75c.05,0,.09-.04.09-.09v-2.21c0-.05-.04-.09-.09-.09h-3.75c-.05,0-.09-.04-.09-.09V.09c0-.05-.04-.09-.09-.09h-2.34s-.02,0-.03.01h0s0,0,0,0h0s-.01.01-.01.01h0s0,0,0,0h0s0,0,0,0h0s0,0,0,0h0s0,0,0,0h0s0,0,0,0h0s0,0,0,0h0s0,0,0,0h0s0,0,0,0h0v6.14h0v.03s0,0,0,0h0s0,0,0,0h0s0,.01,0,.01h0s0,0,0,0h0s0,0,0,0h0s0,0,0,0h0s0,0,0,0h0s0,0,0,0h0s0,0,0,0h0s0,0,0,0h0s-.02.02-.04.02h0s-.06-.04-.09-.1c-.59-1.99-2.37-3.49-4.52-3.74h-.02s-.02,0-.02,0h-.02s-.02,0-.02,0h-.04s-.02,0-.02,0h-.02s-.02,0-.02,0h-.04s-.02,0-.02,0h-.02s-.02,0-.02,0h-.02s-.01,0-.01,0h0s-.02,0-.02,0h-.02s-.02,0-.02,0h-.02s-.02,0-.02,0h0s-.01,0-.01,0h-.02s-.02,0-.02,0h-.02s-.02,0-.02,0h-.02s0,0,0,0h-.02s-.02,0-.02,0h-.06s-.02,0-.02,0h-.08s-.08,0-.08,0h-.08s0,0,0,0h-.08s-.07,0-.07,0h-.08s-.07.01-.07.01h0s-.07,0-.07,0h0s-.07,0-.07,0h-.07s0,0,0,0h-.07s-.07.02-.07.02h0s-.07.01-.07.01h-.07s-.07.03-.07.03h-.07s-.07.03-.07.03h0l-.07.02h0l-.07.02-.07.02h0l-.07.02h0s-.07.02-.07.02h0l-.07.02h0s-.07.02-.07.02l-.07.02h0s-.07.02-.07.02h0s-.07.02-.07.02l-.07.03-.07.03h0s-.07.03-.07.03h0s-.06.03-.06.03l-.06.03h0s-.06.03-.06.03l-.06.03h0s-.06.03-.06.03l-.06.03-.06.03-.06.03-.06.03h0s-.06.04-.06.04l-.06.04-.06.04-.06.04h0s-.06.04-.06.04h0s-.06.04-.06.04h0s-.06.04-.06.04h0s-.06.04-.06.04h0s-.06.04-.06.04h0s-.06.04-.06.04h0s-.06.04-.06.04h0s-.05.04-.05.04l-.05.04h0s-.05.05-.05.05l-.05.05h0s-.05.05-.05.05h0s-.05.05-.05.05h0s-.05.05-.05.05h0s-.05.05-.05.05h0s-.05.05-.05.05l-.05.05-.05.05h0s-.05.05-.05.05h0s-.05.05-.05.05h0s-.05.05-.05.05c0,0-.02.01-.02.01h0s0,0,0,0h0s0,0,0,0h0s0,0,0,0h0s0,0,0,0h0s0,0,0,0h0s0,0,0,0h0s0,0,0,0c-.01-.01-.02-.03-.01-.06h0v-1.61c0-.12-.09-.21-.21-.21h-.19s-.18.01-.18.01h-.18s-.17.03-.17.03l-.17.02-.17.02-.16.02-.16.03-.15.03-.15.03-.15.03-.14.04-.14.04-.13.04-.13.04-.12.05-.12.05-.12.05h0s-.11.05-.11.05h0s-.11.05-.11.05l-.11.06-.1.06-.1.06h0s-.1.06-.1.06l-.09.06h0s-.09.06-.09.06l-.09.07-.08.07-.08.07h0s-.08.07-.08.07l-.08.07-.07.07h0s-.07.07-.07.07h0s-.07.07-.07.07h0s-.06.08-.06.08l-.06.08-.06.08h0s-.06.08-.06.08h0s-.05.08-.05.08h0s-.05.08-.05.08l-.05.08h0s-.05.08-.05.08l-.04.08h0s-.04.08-.04.08l-.04.08-.04.08-.04.08h0s-.03.08-.03.08h0s-.03.08-.03.08l-.03.08-.03.08-.03.08h0s-.03.08-.03.08l-.02.08-.02.08-.02.08-.02.08-.02.08-.02.07-.02.07h0s-.01.07-.01.07v.07s-.03.07-.03.07v.07s-.01,0-.01,0h0s0,.01,0,.01c-.03.1-.14.09-.16-.02-.63-2.19-2.65-3.8-5.05-3.8-.94,0-1.82.37-2.59,1.03-.06.05-.15,0-.15-.07V.09s-.03-.08-.06-.09h0Zm17.48,10.64c-1.63,0-2.95-1.32-2.95-2.94s1.32-2.94,2.95-2.94,2.95,1.32,2.95,2.94-1.32,2.94-2.95,2.94h0Zm27.09-4.16h0s-2.53,0-2.53,0h0c.43-1.21,1.47-2.06,2.7-2.06s2.27.86,2.7,2.06h-2.87Z"/>
  </g>
</svg>