<?xml version="1.0" encoding="UTF-8"?>
<svg id="Layer_2" data-name="Layer 2" width="164px"  height="120px" xmlns="http://www.w3.org/2000/svg" viewBox="0 0 23.95 25.35">
  <defs>
    <style>
      .cls-1, .cls-2 {
        fill: #fff;
      }

      .cls-2 {
        fill-rule: evenodd;
      }
    </style>
  </defs>
  <g id="Layer_1-2" data-name="Layer 1">
    <path class="cls-1" d="m23.08,21.83c.98-1.36,1.14-3.14.44-4.66-.49-1.05-1.08-2.32-1.66-3.55-.6-1.28-1.67-2.26-2.99-2.74-1.32-.48-2.78-.42-4.05.18-.7.33-1.2.56-1.2.56-.61.14-1.13.04-1.4-.53-.47-1.01-1.21-2.6-1.79-3.84-.22-.48-.63-.85-1.12-1.03-.5-.18-1.04-.16-1.52.07-.48.22-.85.63-1.03,1.12-.18.5-.16,1.04.07,1.52,1.43,3.08,4.2,9.01,4.2,9.01,0,0-1.53-.63-2.9-1.2-.55-.22-1.16-.22-1.7.02-.54.24-.96.69-1.16,1.24,0,0,0,0,0,0-.4,1.1.16,2.31,1.25,2.73,1.87.7,4.39,1.65,4.39,1.65,2.02.73,2.54.98,3.3,2.43.32.5.96.68,1.5.43,2.26-1.03,7.37-3.41,7.37-3.41h0Z"/>
    <path class="cls-2" d="m7.39,3.78c.21.45.02.99-.44,1.21-.45.21-.99.02-1.21-.44l-1.05-2.25c-.21-.45-.02-.99.44-1.2.45-.21.99-.01,1.2.44l1.05,2.25h0Z"/>
    <path class="cls-2" d="m11.49,3.55c-.17.47-.69.71-1.16.54-.47-.17-.71-.69-.54-1.16l.85-2.33c.17-.47.69-.71,1.16-.54.47.17.71.69.54,1.16l-.85,2.33h0Z"/>
    <path class="cls-2" d="m3.55,5.84c.47.17.71.69.54,1.16-.17.47-.69.71-1.16.54l-2.33-.85c-.47-.17-.71-.69-.54-1.16.17-.47.69-.71,1.16-.54l2.33.85h0Z"/>
    <path class="cls-2" d="m3.52,9.38c.45-.21.99-.01,1.21.44.21.45.01.99-.44,1.2l-2.25,1.05c-.45.21-.99.02-1.21-.44-.21-.45-.01-.99.44-1.2l2.25-1.05h0Z"/>
    <path class="cls-2" d="m14.76,4.14c.45-.21.99-.02,1.2.44.21.45.01.99-.44,1.2l-2.25,1.05c-.45.21-.99.01-1.2-.44-.21-.45-.01-.99.44-1.2l2.25-1.05h0Z"/>
  </g>
</svg>