<?xml version="1.0" encoding="UTF-8"?>
<svg id="Layer_2" data-name="Layer 2" xmlns="http://www.w3.org/2000/svg" viewBox="0 0 20.79 24.21">
  <g id="Layer_1-2" data-name="Layer 1">
    <path d="m3.52,10.68l5.88,3.69.21.13c.46.29,1.1.29,1.56,0l.21-.13,5.88-3.69,1.67-1.05,1.27-.8c.37-.43.58-.97.58-1.53,0-.82-.44-1.58-1.17-2.04L11.91.43c-.91-.57-2.13-.57-3.03,0L1.17,5.27c-.73.46-1.17,1.22-1.17,2.04,0,.56.21,1.1.58,1.53l1.27.8,1.67,1.05h0Zm7.32.38c-.26.16-.63.16-.9,0-.75-.46-1.49-.93-2.24-1.39-.85-.53-1.71-1.06-2.56-1.59-.97-.6-.08-2.14.9-1.53,1.45.9,2.9,1.8,4.35,2.71,1.45-.9,2.9-1.8,4.35-2.71.97-.61,1.86.93.9,1.53-.83.51-1.65,1.03-2.48,1.54-.77.48-1.55.96-2.32,1.44h0Z"/>
    <path d="m12.12,20.94c-1,.63-2.45.63-3.45,0l-6.83-4.29-1.5-.94c-.22.36-.34.77-.34,1.2,0,.82.44,1.58,1.17,2.04,0,0,7.71,4.84,7.71,4.84.89.56,2.12.57,3.03,0l7.71-4.84c.73-.46,1.17-1.22,1.17-2.04,0-.43-.12-.84-.34-1.2l-1.5.94s-6.82,4.28-6.83,4.29h0Z"/>
    <path d="m3.42,15.54l6.19,3.89c.46.29,1.1.29,1.56,0l6.19-3.89,1.67-1.05.75-.47c.63-.47,1-1.17,1-1.92,0-.46-.14-.91-.4-1.29l-1.5.94-4.17,2.62-2.61,1.64c-.52.32-1.12.49-1.73.49s-1.21-.16-1.72-.49l-2.6-1.64-4.17-2.62-1.5-.94c-.25.38-.4.82-.4,1.29,0,.75.37,1.45,1,1.92l.75.47,1.67,1.05h0Z"/>
  </g>
</svg>