<?xml version="1.0" encoding="UTF-8"?>
<svg id="Layer_2" data-name="Layer 2" xmlns="http://www.w3.org/2000/svg" viewBox="0 0 21.66 21.22">
  <g id="Layer_1-2" data-name="Layer 1">
    <path d="m9.23,11.45c0-.68-.55-1.23-1.23-1.23h-1.27c-.68,0-1.23.55-1.23,1.23v8.54c0,.68.55,1.23,1.23,1.23h1.27c.68,0,1.23-.55,1.23-1.23v-8.54h0Z"/>
    <path d="m3.73,14.43c0-.73-.59-1.32-1.32-1.32h-1.09c-.73,0-1.32.59-1.32,1.32v5.47c0,.73.59,1.32,1.32,1.32h1.09c.73,0,1.32-.59,1.32-1.32v-5.47h0Z"/>
    <path d="m14.63,8.19c0-.68-.55-1.23-1.23-1.23h-1.27c-.68,0-1.23.55-1.23,1.23v11.8c0,.68.55,1.23,1.23,1.23h1.27c.68,0,1.23-.55,1.23-1.23v-11.8h0Z"/>
    <path d="m21.47,3.48l-2.39-3.07c-.21-.26-.5-.42-.81-.42s-.6.15-.81.42l-2.39,3.07c-.21.26-.26.55-.14.79.13.26.44.42.82.42h.64v15.34c0,.68.55,1.19,1.23,1.19h1.28c.68,0,1.22-.52,1.22-1.19V4.69h.65c.39,0,.7-.15.82-.41.12-.24.07-.53-.14-.79h0Z"/>
  </g>
</svg>