<?xml version="1.0" encoding="UTF-8"?>
<!DOCTYPE svg PUBLIC "-//W3C//DTD SVG 1.1//EN" "http://www.w3.org/Graphics/SVG/1.1/DTD/svg11.dtd">
<!-- Creator: CorelDRAW 2020 (64-Bit) -->
<svg xmlns="http://www.w3.org/2000/svg" xml:space="preserve" width="160px" height="60px" version="1.1" style="shape-rendering:geometricPrecision; text-rendering:geometricPrecision; image-rendering:optimizeQuality; fill-rule:evenodd; clip-rule:evenodd"
viewBox="0 0 1.48 0.33"
 xmlns:xlink="http://www.w3.org/1999/xlink"
 xmlns:xodm="http://www.corel.com/coreldraw/odm/2003">
 <defs>
  <style type="text/css">
   <![CDATA[
    .fil0 {fill:#fff;fill-rule:nonzero}
   ]]>
  </style>
 </defs>
 <g id="Layer_x0020_1">
  <metadata id="CorelCorpID_0Corel-Layer"/>
  <path class="fil0" d="M0.26 0l-0.07 0c0,0.06 -0.03,0.11 -0.08,0.15l-0.03 0.02 0.11 0.15 0.1 0 -0.1 -0.14c0.05,-0.04 0.07,-0.11 0.07,-0.18zm-0.26 0l0.07 0 0 0.32 -0.07 0 0 -0.32zm0.31 0l0.07 0 0 0.32 -0.07 0 0 -0.32zm0.68 0.09c-0.02,0 -0.05,0.01 -0.07,0.03l0 -0.02 -0.06 0 0 0.22 0.07 0 0 -0.12c0,-0.03 0.02,-0.05 0.05,-0.05 0.03,0 0.04,0.02 0.04,0.05l0 0.12 0.07 0 0 -0.14c0,-0.05 -0.04,-0.09 -0.1,-0.09zm-0.4 0.01l0 0.01c-0.02,-0.01 -0.04,-0.02 -0.07,-0.02 -0.06,0 -0.11,0.05 -0.11,0.12 0,0.06 0.05,0.12 0.11,0.12 0.03,0 0.05,-0.01 0.07,-0.02l0 0.01 0.07 0 0 -0.22 -0.07 0zm-0.06 0.17c-0.04,0 -0.06,-0.03 -0.06,-0.06 0,-0.03 0.02,-0.06 0.06,-0.06 0.04,0 0.06,0.03 0.06,0.06 0,0.03 -0.02,0.06 -0.06,0.06zm0.23 -0.14l0 -0.03 -0.07 0 0 0.22 0.07 0 0 -0.1c0,-0.04 0.04,-0.06 0.06,-0.06l0.01 0 0 -0.06c-0.03,0 -0.05,0.01 -0.07,0.03zm0.54 -0.03l0 0.01c-0.02,-0.01 -0.04,-0.02 -0.07,-0.02 -0.06,0 -0.12,0.05 -0.12,0.12 0,0.06 0.06,0.12 0.12,0.12 0.03,0 0.05,-0.01 0.07,-0.02l0 0.01 0.07 0 0 -0.22 -0.07 0zm-0.06 0.17c-0.04,0 -0.06,-0.03 -0.06,-0.06 0,-0.03 0.02,-0.06 0.06,-0.06 0.03,0 0.06,0.03 0.06,0.06 0,0.03 -0.03,0.06 -0.06,0.06zm0.18 -0.17c0,0 -0.01,0 -0.01,0l0 0 0 0.01 0 0 0 0 0 0 0.01 0 -0.01 0c0,0 0.01,0 0.01,-0.01zm-0.01 0.01l0 0 0 -0.01 0 0 0 0c0,0.01 0,0.01 0,0.01z"/>
  <path class="fil0" d="M1.41 0.09c-0.01,0 -0.02,0.01 -0.02,0.02 0,0 0.01,0.01 0.02,0.01 0.01,0 0.02,-0.01 0.02,-0.01 0,-0.01 -0.01,-0.02 -0.02,-0.02zm0 0.03c-0.01,0 -0.01,-0.01 -0.01,-0.01 0,-0.01 0,-0.02 0.01,-0.02 0.01,0 0.01,0.01 0.01,0.02 0,0 0,0.01 -0.01,0.01zm0.03 0.12c-0.03,0 -0.05,0.02 -0.05,0.04 0,0.03 0.02,0.04 0.05,0.04 0.02,0 0.04,-0.01 0.04,-0.04 0,-0.02 -0.02,-0.04 -0.04,-0.04z"/>
 </g>
</svg>
