<?xml version="1.0" encoding="UTF-8"?>
<svg id="Layer_2" data-name="Layer 2" width="160px" height="60px" xmlns="http://www.w3.org/2000/svg" viewBox="0 0 51.16 14.38">
  <defs>
    <style>
      .cls-1 {
        fill: #fff;
      }
    </style>
  </defs>
  <g id="Layer_1-2" data-name="Layer 1">
    <path class="cls-1" d="m10.1,1.59C9.11-.4,5.19.04,2.91.05c-.33,0-.66.26-.74.59L.02,10.03c-.19.8,1.03.58,2,.58,1.43,0,.57-3.45,2-3.45,3.1,0,6.39-.9,6.38-4.2,0-.55-.09-1.01-.3-1.38h0Zm17.83.97c-2.96.03-2.14-.73-5.22,4.74h-.26c-.87-5.23-.27-4.73-2.9-4.73-.33,0-.54.26-.46.59,0,0,1.04,5.94,1.25,7.34.16,1.13-.36,1.59-1.37,3.28-.48.8.73.58,1.83.58.33,0,.77-.26.96-.58l6.12-10.34s.59-.88.04-.87h0Zm23.21-1.81c.17-.78-.93-.58-1.84-.58-.49,0-.71.48-.81.89l-1.98,9.01c-.06.29.11.5.39.55l.02.03c1.13,0,1.83.2,2.16-.59l2.06-9.31h0Zm-13.16.88c-1.03-1.99-4.85-1.56-7.2-1.54-.33,0-.66.27-.73.58l-2.16,9.4c-.19.8,1.04.58,2,.58,1.43,0,.57-3.45,2-3.45,3.05.01,6.4-.88,6.38-4.2,0-.55-.1-1.01-.29-1.38h0Zm-3.31,3.07c-.63.45-3.03.95-2.79-.08.55-2.39.34-2.58,1.7-2.58,2.57,0,1.86,2.09,1.09,2.66h0Zm10.72-1.76c-.86-.48-5.77-.98-6.06.51-.45,2.26-.14.73,2.46.74,1.12,0,1.94.11,1.83,1.11-.95.61-6.2-.23-6.2,3.56,0,2.09,2.38,2.8,5.16.94h.01s-.06.27-.06.27c0,0-.1.53.41.58h0c.8,0,1.92.22,2.1-.58l1.21-5.61c0-.68-.29-1.19-.88-1.52h0Zm-2.47,5.45c-.66.85-2.52,1.29-2.82.06-.32-1.28,2.27-1.54,3.02-1.55l-.2,1.49h0ZM17.51,2.93c-.86-.49-5.77-.98-6.06.51-.45,2.27-.13.72,2.46.74,1.1,0,1.96.1,1.83,1.11-.96.59-6.19-.23-6.19,3.57,0,2.07,2.45,2.6,4.58,1.32l.58-.38h0c-.22.93.26.73.35.85.82,0,1.92.21,2.11-.58l1.2-5.61c0-.69-.29-1.2-.87-1.52h0Zm-2.48,5.45c-.63.82-2.51,1.31-2.82.06-.3-1.25,2.26-1.53,3.02-1.55l-.21,1.49h0Zm-8.24-3.72c-.63.46-3.02.96-2.78-.08.55-2.42.35-2.58,1.7-2.58,2.55,0,1.87,2.08,1.09,2.66h0Z"/>
  </g>
</svg>