<?xml version="1.0" encoding="UTF-8"?>
<svg id="Layer_2" data-name="Layer 2" width="164px"  height="120px" xmlns="http://www.w3.org/2000/svg" viewBox="0 0 25.38 25.38">
  <defs>
    <style>
      .cls-1 {
        fill: #fff;
      }
    </style>
  </defs>
  <g id="Layer_1-2" data-name="Layer 1">
    <path class="cls-1" d="m25.38,6.34c0-3.5-2.85-6.34-6.34-6.34-2.56,0-4.77,1.53-5.77,3.72l-2.01-.92c-.24-.11-.51-.11-.75,0L.53,7.33c-.32.15-.53.47-.53.82v11.78c0,.36.21.68.53.82l9.97,4.53c.12.05.25.08.38.08s.26-.03.37-.08l9.97-4.53c.32-.15.53-.47.53-.82v-7.87c2.14-1.02,3.63-3.2,3.63-5.72h0Zm-14.5-1.72l1.88.85c-.04.29-.07.57-.07.87,0,1.47.51,2.83,1.36,3.91l-3.17,1.44-7.78-3.54,7.78-3.54h0ZM1.81,9.56l8.16,3.71v9.79l-8.16-3.71v-9.79h0Zm18.13,9.79l-8.16,3.71v-9.79l3.69-1.68c1.02.69,2.24,1.09,3.56,1.09.31,0,.61-.03.91-.07v6.74h0Zm-.91-8.48c-2.5,0-4.53-2.03-4.53-4.53s2.03-4.53,4.53-4.53,4.53,2.03,4.53,4.53-2.03,4.53-4.53,4.53h0Z"/>
    <path class="cls-1" d="m21.18,2.78c-.47-.18-.99.04-1.18.5l-1.3,3.26-.84-.84c-.35-.35-.93-.35-1.28,0-.35.35-.35.93,0,1.28l1.81,1.81c.17.17.4.27.64.27.06,0,.12,0,.18-.02.3-.06.55-.27.66-.55l1.81-4.53c.19-.46-.04-.99-.51-1.18h0Z"/>
  </g>
</svg>