<?xml version="1.0" encoding="UTF-8"?>
<svg id="Layer_2" data-name="Layer 2" xmlns="http://www.w3.org/2000/svg" viewBox="0 0 19.93 22.32">
  <g id="Layer_1-2" data-name="Layer 1">
    <path d="m19.66,3.12c-.04-.29-.25-.52-.53-.6L10.16.03c-.13-.04-.26-.04-.39,0L.8,2.52c-.28.08-.49.31-.53.6-.05.37-1.24,9.22,1.81,13.61,3.04,4.39,7.53,5.52,7.72,5.56.06.01.11.02.17.02s.12,0,.17-.02c.19-.05,4.68-1.17,7.72-5.56,3.05-4.4,1.86-13.24,1.81-13.61h0Zm-3.91,5.16l-6.12,6.12c-.14.14-.33.21-.52.21s-.37-.07-.52-.21l-3.78-3.78c-.14-.14-.21-.32-.21-.52s.08-.38.21-.52l.75-.75c.29-.28.75-.28,1.03,0l2.52,2.52,4.85-4.85c.14-.14.32-.21.52-.21s.38.08.52.21l.75.75c.29.28.29.75,0,1.03h0Z"/>
  </g>
</svg>