<?xml version="1.0" encoding="UTF-8"?>
<svg id="Layer_2" data-name="Layer 2"  width="160px" height="60px" xmlns="http://www.w3.org/2000/svg" viewBox="0 0 39.25 16.33">
  <defs>
    <style>
      .cls-1 {
        fill: #fff;
        fill-rule: evenodd;
      }
    </style>
  </defs>
  <g id="Layer_1-2" data-name="Layer 1">
    <path class="cls-1" d="m39.25,8.44c0-2.79-1.35-4.99-3.94-4.99s-4.16,2.2-4.16,4.97c0,3.28,1.85,4.94,4.51,4.94,1.3,0,2.28-.29,3.02-.71v-2.18c-.74.37-1.59.6-2.67.6s-2-.37-2.12-1.66h5.33c0-.14.02-.71.02-.97h0ZM2.76,6.4c0-.43.35-.59.93-.59.83,0,1.88.25,2.7.7v-2.56c-.91-.36-1.8-.5-2.7-.5-2.21,0-3.69,1.16-3.69,3.09,0,3.01,4.14,2.53,4.14,3.83,0,.5-.44.67-1.05.67-.9,0-2.06-.37-2.98-.87v2.59c1.01.44,2.04.62,2.98.62,2.27,0,3.83-1.12,3.83-3.07-.01-3.25-4.17-2.67-4.17-3.89h0ZM10.13,1.26l-2.66.57v8.73c-.01,1.61,1.2,2.8,2.81,2.8.89,0,1.55-.16,1.91-.36v-2.21c-.35.14-2.07.64-2.07-.97v-3.87h2.07v-2.32h-2.07V1.26h.01Zm5.45,3.17l-.17-.81h-2.35v9.54h2.73v-6.46c.64-.84,1.73-.69,2.07-.57v-2.51c-.35-.13-1.62-.37-2.27.81h0Zm2.93,8.73h2.74V3.63h-2.74v9.54h0Zm0-10.37l2.74-.59V0l-2.74.58v2.22h0Zm8.43.64c-1.07,0-1.76.5-2.14.85l-.14-.68h-2.4v12.71l2.73-.58v-3.09c.4.28.98.69,1.94.69,1.95,0,3.73-1.57,3.73-5.03-.01-3.16-1.81-4.88-3.72-4.88h0Zm-.65,7.51c-.64,0-1.02-.23-1.29-.51v-4.04c.27-.32.67-.53,1.29-.53.99,0,1.68,1.11,1.68,2.54,0,1.46-.68,2.55-1.68,2.55h0Zm7.58-3.55c0-1.23.75-1.74,1.44-1.74s1.37.51,1.37,1.74h-2.81Z"/>
  </g>
</svg>