<?xml version="1.0" encoding="UTF-8"?>
<svg id="Layer_2" data-name="Layer 2" width="164px"  height="120px" xmlns="http://www.w3.org/2000/svg" viewBox="0 0 29 25.15">
  <defs>
    <style>
      .cls-1 {
        fill: #fff;
      }
    </style>
  </defs>
  <g id="Layer_1-2" data-name="Layer 1">
    <path class="cls-1" d="m25.44,15.92l-6.51-2.78c-.52-.22-1.11.12-1.18.68l-.85,7.03c-.08.7.66,1.19,1.27.84l1.1-.64,2.12,3.68c.23.41.75.55,1.16.31l3.68-2.12c.41-.23.55-.75.31-1.16l-2.12-3.68,1.1-.64c.61-.35.55-1.24-.09-1.52h0Z"/>
    <path class="cls-1" d="m13.68,8.06h-.61c-.06,0-.12,0-.17,0v1c.3,0,.64,0,.79,0,.28,0,.5-.22.5-.5s-.23-.5-.5-.5h0Z"/>
    <path class="cls-1" d="m13.48,6.92c.19,0,.35-.16.35-.35s-.16-.35-.35-.35h-.59v.69h.17c.17,0,.33,0,.41,0h0Z"/>
    <path class="cls-1" d="m19.59,11.57l6.47,2.76c.39.16.72.42.98.73h.01c1.14-.46,1.94-1.58,1.94-2.89V3.12c0-1.72-1.4-3.12-3.11-3.12H3.12C1.4,0,0,1.4,0,3.12v9.06c0,1.72,1.4,3.12,3.12,3.12h12.74l.2-1.68c.2-1.69,1.97-2.71,3.53-2.04h0Zm4.31-6.19h1.88c.31,0,.57.25.57.57s-.25.57-.57.57h-.38v2.83c0,.31-.25.57-.57.57s-.57-.25-.57-.57v-2.83h-.37c-.31,0-.57-.25-.57-.57s.25-.57.57-.57h0Zm-2.43.57c0-.31.25-.57.57-.57s.57.25.57.57v3.4c0,.31-.25.57-.57.57s-.57-.25-.57-.57v-3.4h0Zm-15.18,2.92c-.14.77-.87,1.33-1.74,1.33-.7,0-1.36-.28-1.8-.77-.21-.23-.19-.59.04-.8.23-.21.59-.19.8.04.23.25.59.4.96.4.34,0,.59-.2.62-.39.04-.25-.35-.42-.47-.46-.62-.23-1.17-.47-1.19-.48-.03-.01-.05-.03-.08-.04-.44-.29-.67-.79-.59-1.32.08-.56.49-1.01,1.06-1.18,1.12-.34,2.04.42,2.08.45.24.2.27.56.07.8-.2.24-.56.27-.79.07-.02-.01-.51-.4-1.03-.24-.22.06-.26.2-.27.26,0,.05,0,.13.06.19.15.06.59.26,1.07.43,1.04.38,1.3,1.14,1.2,1.72h0Zm4.6-.48c0,.69-.38,1.25-1.06,1.6-.28.14-.58.21-.91.21h0c-.38,0-.73-.1-1.03-.3-.59-.37-.88-.88-.88-1.5v-2.73c0-.31.25-.57.57-.57s.57.25.57.57v2.73c0,.2.06.36.36.55.13.08.27.12.43.12h0c.15,0,.28-.03.4-.09.38-.19.44-.4.44-.58v-2.73c0-.31.25-.57.57-.57s.57.25.57.57v2.73h0Zm2.79,1.8c-.29,0-1.35,0-1.35,0h0c-.15,0-.29-.06-.4-.16-.11-.11-.17-.25-.17-.4v-2.14h0v-1.83c0-.31.25-.57.57-.57h1.15c.82,0,1.48.66,1.48,1.48,0,.27-.07.53-.2.75.34.3.56.74.56,1.23,0,.9-.73,1.63-1.63,1.63h0Zm2.27-.97l.6-3.31s0,0,0,0c.05-.29.3-.5.59-.52.29-.02.56.16.65.44,0,0,0,.01,0,.02l.49,1.67.47-1.67s0-.01,0-.02c.09-.28.36-.46.65-.44.29.02.54.23.59.51,0,0,0,0,0,0l.63,3.31c.06.31-.14.6-.45.66-.31.06-.6-.14-.66-.45l-.25-1.29-.37,1.31s0,.01,0,.02c-.09.26-.33.44-.61.44h0c-.28,0-.52-.18-.61-.44,0,0,0-.01,0-.02l-.39-1.31-.23,1.28c-.06.31-.35.51-.66.46-.31-.06-.51-.35-.46-.66h0Z"/>
  </g>
</svg>