<?xml version="1.0" encoding="UTF-8"?>
<svg id="Layer_2" data-name="Layer 2" width="160px" fill="#fff" height="40px" xmlns="http://www.w3.org/2000/svg" viewBox="0 0 32.81 12.09">
  <g id="Layer_1-2" data-name="Layer 1">
    <path d="m3.31,3.09H0V0h10.28v3.09h-3.31v9h-3.66V3.09h0ZM10.85,0h10v3.09h-6.33v1.49h6.33v2.9h-6.33v1.52h6.33v3.09h-10V0h0Zm10.6,0h6.01c3.95,0,5.34,2.98,5.34,6.03,0,3.7-1.92,6.06-6.05,6.06h-5.3V0h0Zm3.66,9h1.42c2.28,0,2.6-1.89,2.6-3.01,0-.76-.25-2.87-2.88-2.87h-1.18l.04,5.88h0Z"/>
  </g>
</svg>