<?xml version="1.0" encoding="UTF-8"?>
<svg id="Layer_2" data-name="Layer 2" xmlns="http://www.w3.org/2000/svg" viewBox="0 0 11.02 10.46">
  <defs>
    <style>
      .cls-1 {
        fill: #072bf3;
      }
    </style>
  </defs>
  <g id="Layer_1-2" data-name="Layer 1">
    <path class="cls-1" d="m9.73,2.58l-.07-.12-.09.1c-.19.22-.37.42-.54.62l-.04.05.03.06c.31.61.47,1.26.47,1.94,0,2.35-1.91,4.26-4.26,4.26S.97,7.58.97,5.23,2.88.97,5.23.97c.8,0,1.59.23,2.28.67l.06.04.06-.05c.2-.16.41-.33.63-.49l.11-.08-.11-.08c-.89-.63-1.94-.97-3.02-.97C2.35,0,0,2.35,0,5.23s2.35,5.23,5.23,5.23,5.23-2.35,5.23-5.23c0-.93-.25-1.85-.73-2.66h0Z"/>
    <path class="cls-1" d="m5.22,4.67S7.79,1.4,10.48.3c.47-.21.81.06.25.51-.36.29-3.06,2.81-4.95,6.49-.25.5-.83.47-1.04.1-.22-.37-1.78-3.39-1.98-3.77-.34-.64.28-1.11.74-.68.25.24,1.72,1.72,1.72,1.72h0Z"/>
  </g>
</svg>