<?xml version="1.0" encoding="UTF-8"?>
<svg id="Layer_2" data-name="Layer 2" fill="#fff" xmlns="http://www.w3.org/2000/svg" viewBox="0 0 39.32 11.92">
  <g id="Layer_1-2" data-name="Layer 1">
    <path d="m25.46,2.76c-1.73,0-3.14,1.43-3.13,3.2,0,1.77,1.43,3.18,3.16,3.17,1.73,0,3.14-1.43,3.13-3.2,0-1.77-1.43-3.18-3.16-3.17h0Zm.02,5.07c-.49,0-.96-.19-1.31-.53-.35-.34-.54-.81-.55-1.3,0-.49.19-.96.53-1.31.34-.35.81-.54,1.3-.55.49,0,.96.19,1.31.53.35.34.54.81.55,1.3,0,.98-.86,1.85-1.84,1.86h0Zm6.98-3.57c-.9,0-1.61.75-1.6,1.66v3.03s-1.36,0-1.36,0l-.03-6.01h1.37s0,.94,0,.94c0,0,.58-.95,1.76-.95h.39s0,1.33,0,1.33h-.55Zm-13.72-1.27l1.04,4.12,1.08-4.13h1.38s-1.7,6.02-1.7,6.02h-1.34s-1.08-4.19-1.08-4.19l-1.04,4.21h-1.34s-1.8-6-1.8-6h1.33s1.2,4.11,1.2,4.11l.96-4.13h1.3Zm18.28,2.66c.94-.55,1.6-1.58,1.6-2.76h-1.38c0,1.03-.82,1.86-1.8,1.86h-.2s-.02-4.75-.02-4.75h-1.38s.04,8.93.04,8.93h1.37s-.01-2.83-.01-2.83h.16c.16,0,.31.08.35.19l1.94,2.62h1.61s-2.29-3.26-2.29-3.26h0Z"/>
    <path d="m10.77,2.83c-1.49,0-2.63.99-3.05,2.57-.71-1.1-1.27-2.35-1.59-3.41h-1.57s.02,4.17.02,4.17c0,.4-.15.78-.43,1.06-.28.28-.66.44-1.05.44-.4,0-.78-.15-1.06-.43-.28-.28-.44-.66-.44-1.05l-.02-4.16H0s.02,4.17.02,4.17c0,1.73,1.39,3.1,3.08,3.09,1.69,0,3.06-1.39,3.05-3.12v-.71c.31.63.71,1.29,1.14,1.88l-.96,4.6h1.61s.69-3.35.69-3.35c.63.39,1.33.62,2.16.62,1.73,0,3.14-1.43,3.13-3.24,0-.83-.34-1.63-.93-2.22-.59-.59-1.39-.91-2.22-.91h0Zm.02,4.75c-.63,0-1.26-.27-1.77-.7l.15-.63v-.04c.11-.67.46-1.81,1.64-1.81.42,0,.81.16,1.11.46.3.29.46.69.47,1.1-.04.9-.78,1.61-1.6,1.62h0Z"/>
  </g>
</svg>