<?xml version="1.0" encoding="UTF-8"?>
<svg id="Layer_2" data-name="Layer 2" width="160px" height="40px" xmlns="http://www.w3.org/2000/svg" viewBox="0 0 38.88 12.56">
  <defs>
    <style>
      .cls-1 {
        fill: #fff;
      }
    </style>
  </defs>
  <g id="Layer_1-2" data-name="Layer 1">
    <path class="cls-1" d="m14.76.22l-5.09,12.14h-3.32L3.85,2.67c-.15-.6-.29-.81-.75-1.07-.76-.41-2-.79-3.1-1.03L.08.22h5.34c.68,0,1.29.45,1.45,1.24l1.32,7.03L11.46.22h3.3Zm13.01,8.18c.01-3.2-4.43-3.38-4.4-4.81,0-.44.42-.9,1.33-1.02.45-.06,1.69-.1,3.1.54l.55-2.57c-.76-.27-1.73-.54-2.94-.54-3.1,0-5.29,1.65-5.31,4.01-.02,1.75,1.56,2.72,2.75,3.3,1.22.6,1.63.98,1.63,1.51,0,.81-.98,1.17-1.88,1.19-1.58.02-2.5-.43-3.23-.77l-.57,2.66c.73.34,2.09.63,3.49.65,3.3,0,5.46-1.63,5.47-4.16h0Zm8.2,3.97h2.91L36.34.22h-2.68c-.6,0-1.11.35-1.34.89l-4.71,11.25h3.3l.65-1.81h4.03l.38,1.81h0Zm-3.5-4.3l1.65-4.56.95,4.56h-2.61ZM19.25.22l-2.6,12.14h-3.14L16.11.22h3.14Z"/>
  </g>
</svg>