<?xml version="1.0" encoding="UTF-8"?>
<svg id="Layer_2" data-name="Layer 2" width="160px" height="60px" xmlns="http://www.w3.org/2000/svg" viewBox="0 0 52.5 11.8">
  <defs>
    <style>
      .cls-1 {
        fill: #fff;
        fill-rule: evenodd;
      }
    </style>
  </defs>
  <g id="Layer_1-2" data-name="Layer 1">
    <path class="cls-1" d="m21.28,1.73C20.13.58,18.62,0,17.11,0h0c-1.51,0-3.02.58-4.17,1.73-2.3,2.3-2.3,6.04,0,8.34,2.3,2.3,6.04,2.3,8.34,0,2.3-2.3,2.3-6.04,0-8.34h0Zm21.47,1.81c.2.35.26.74.29,1.18l.03.59v4.13l.03.59c.06.96.77,1.68,1.74,1.74l.59.03v-6.49l.03-.59c.02-.44.09-.84.29-1.19.41-.7,1.17-1.17,2.04-1.17s1.64.47,2.04,1.18c.2.35.26.75.29,1.18l.03.59v4.13l.03.59c.06.97.77,1.68,1.74,1.74l.59.03v-7.08C52.5,2.11,50.39,0,47.78,0c-1.41,0-2.67.62-3.54,1.6C43.38.62,42.11,0,40.7,0c-.98,0-1.89.3-2.64.81C37.6.3,36.57,0,35.98,0v11.8l.59-.03c.98-.06,1.7-.76,1.74-1.74l.03-.59v-4.13l.03-.59c.03-.44.09-.84.29-1.19.41-.7,1.17-1.17,2.04-1.17.87,0,1.63.47,2.04,1.18h0ZM2.36,11.77l.59.03h8.85l-.03-.59c-.08-.97-.77-1.68-1.74-1.74l-.59-.03h-5.31l7.08-7.08-.03-.59c-.05-.98-.76-1.69-1.74-1.74L8.85,0H0s.03.59.03.59c.08.96.77,1.68,1.74,1.74l.59.03h5.31L.59,9.44l.03.59c.06.97.76,1.68,1.74,1.74h0ZM33.67,1.73C32.52.58,31.01,0,29.49,0c-1.51,0-3.02.58-4.17,1.73-2.3,2.3-2.3,6.04,0,8.34,2.3,2.3,6.04,2.3,8.34,0,2.3-2.3,2.3-6.04,0-8.34h0Zm-1.67,6.67c-1.38,1.38-3.62,1.38-5.01,0-1.38-1.38-1.38-3.62,0-5.01,1.38-1.38,3.62-1.38,5.01,0,1.38,1.38,1.38,3.62,0,5.01h0Zm-12.39,0c-1.38,1.38-3.62,1.38-5.01,0-1.38-1.38-1.38-3.62,0-5.01,1.38-1.38,3.62-1.38,5.01,0,1.38,1.38,1.38,3.62,0,5.01h0Z"/>
  </g>
</svg>